<svg width="26" height="26" viewBox="0 0 26 26" fill="none" xmlns="http://www.w3.org/2000/svg">
<rect width="26" height="26" rx="13" fill="white"/>
<path d="M19.9287 16.9702L16.9686 14.996C16.5929 14.7474 16.0894 14.8292 15.8117 15.1839L14.9494 16.2926C14.8386 16.4387 14.6372 16.4811 14.4768 16.3921L14.3128 16.3016C13.7691 16.0052 13.0926 15.6362 11.7295 14.2726C10.3664 12.9089 9.99666 12.2318 9.70029 11.689L9.61035 11.525C9.52007 11.3647 9.56166 11.1624 9.70783 11.0507L10.8157 10.1886C11.1702 9.91086 11.2521 9.40742 11.0039 9.03163L9.02981 6.07126C8.77542 5.68859 8.26505 5.57371 7.87123 5.81046L6.63341 6.55408C6.24447 6.78275 5.95913 7.15309 5.8372 7.58749C5.39146 9.21171 5.72679 12.0149 9.8558 16.1447C13.1403 19.4292 15.5855 20.3125 17.2662 20.3125C17.653 20.3141 18.0382 20.2638 18.4116 20.1628C18.8461 20.041 19.2165 19.7556 19.445 19.3666L20.1893 18.1294C20.4264 17.7355 20.3116 17.2247 19.9287 16.9702ZM19.7693 17.8793L19.0267 19.1172C18.8627 19.398 18.5963 19.6045 18.2834 19.6934C16.7841 20.1051 14.1647 19.7641 10.2006 15.7998C6.23662 11.8355 5.89569 9.21611 6.30733 7.71645C6.39633 7.40318 6.60305 7.13644 6.88419 6.97209L8.12202 6.22944C8.2929 6.12662 8.51441 6.17646 8.6248 6.34252L9.69715 7.9526L10.5972 9.30263C10.705 9.46563 10.6696 9.6841 10.5158 9.80472L9.40763 10.6668C9.07039 10.9247 8.97409 11.3913 9.18172 11.7616L9.26971 11.9215C9.58119 12.4928 9.96844 13.2035 11.3822 14.6172C12.796 16.0308 13.5065 16.4181 14.0775 16.7296L14.2376 16.8178C14.6079 17.0255 15.0745 16.9292 15.3323 16.5919L16.1943 15.4837C16.315 15.33 16.5334 15.2946 16.6964 15.4023L19.6563 17.3765C19.8225 17.4868 19.8723 17.7084 19.7693 17.8793Z" fill="black"/>
<path d="M13.9746 8.12592C16.2617 8.12846 18.1151 9.98206 18.1177 12.2694C18.1177 12.404 18.2268 12.5131 18.3614 12.5131C18.496 12.5131 18.6051 12.404 18.6051 12.2694C18.6023 9.71295 16.5308 7.64127 13.9746 7.63847C13.84 7.63847 13.7309 7.74758 13.7309 7.8822C13.7309 8.01681 13.84 8.12592 13.9746 8.12592Z" fill="black"/>
<path d="M13.9746 9.5883C15.4544 9.59005 16.6537 10.7894 16.6554 12.2694C16.6554 12.404 16.7645 12.5131 16.8991 12.5131C17.0337 12.5131 17.1428 12.404 17.1428 12.2694C17.1408 10.5203 15.7235 9.10286 13.9746 9.10086C13.84 9.10086 13.7309 9.20997 13.7309 9.34458C13.7309 9.4792 13.84 9.5883 13.9746 9.5883Z" fill="black"/>
<path d="M13.9746 11.0507C14.6472 11.0515 15.1923 11.5966 15.1931 12.2694C15.1931 12.404 15.3023 12.5131 15.4368 12.5131C15.5714 12.5131 15.6805 12.404 15.6805 12.2694C15.6795 11.3275 14.9163 10.5643 13.9746 10.5632C13.84 10.5632 13.7309 10.6724 13.7309 10.807C13.7309 10.9416 13.84 11.0507 13.9746 11.0507Z" fill="black"/>
</svg>
